<?xml version="1.0" encoding="UTF-8" standalone="no"?>
<!-- Generator: Adobe Illustrator 12.0.0, SVG Export Plug-In . SVG Version: 6.00 Build 51448)  -->
<svg xmlns:ns="http://ns.adobe.com/SaveForWeb/1.0/" xmlns:dc="http://purl.org/dc/elements/1.1/" xmlns:cc="http://creativecommons.org/ns#" xmlns:rdf="http://www.w3.org/1999/02/22-rdf-syntax-ns#" xmlns:svg="http://www.w3.org/2000/svg" xmlns="http://www.w3.org/2000/svg" xmlns:xlink="http://www.w3.org/1999/xlink" xmlns:sodipodi="http://sodipodi.sourceforge.net/DTD/sodipodi-0.dtd" xmlns:inkscape="http://www.inkscape.org/namespaces/inkscape" version="1.1" id="Livello_1" width="555.068" height="700.319" viewBox="-181.251 -226.296 555.068 700.319" overflow="visible" enable-background="new -181.251 -226.296 555.068 700.319" xml:space="preserve" sodipodi:version="0.32" inkscape:version="0.46" sodipodi:docname="tchelinux.svg" sodipodi:docbase="/home/avelino" inkscape:output_extension="org.inkscape.output.svg.inkscape" sodipodi:modified="true"><defs id="defs375"><inkscape:perspective sodipodi:type="inkscape:persp3d" inkscape:vp_x="0 : 350.15948 : 1" inkscape:vp_y="0 : 1000 : 0" inkscape:vp_z="555.06799 : 350.15948 : 1" inkscape:persp3d-origin="277.534 : 233.43966 : 1" id="perspective250"/><radialGradient id="radialGradient4672" cx="11.1614" cy="188.8391" r="110.2065" fx="-70.2722" fy="221.4495" gradientUnits="userSpaceOnUse">
		<stop offset="0.61540002" style="stop-color:#409640;stop-opacity:1;" id="stop4674"/>
		<stop offset="0.91119999" style="stop-color:#135823;stop-opacity:1;" id="stop4676"/>
	</radialGradient><radialGradient id="radialGradient3689" cx="11.1614" cy="188.8391" r="110.2065" fx="-70.2722" fy="221.4495" gradientUnits="userSpaceOnUse">
		<stop offset="0.61540002" style="stop-color:#706d6a;stop-opacity:1;" id="stop3691"/>
		<stop offset="0.91119999" style="stop-color:#989898;stop-opacity:1;" id="stop3693"/>
	</radialGradient><linearGradient inkscape:collect="always" xlink:href="#_75832648_1_" id="linearGradient3104" x1="181.77967" y1="373.43346" x2="373.8177" y2="373.43346" gradientUnits="userSpaceOnUse"/><filter inkscape:collect="always" id="filter3487"><feGaussianBlur inkscape:collect="always" stdDeviation="6.6301082" id="feGaussianBlur3489"/></filter>
	
		<radialGradient gradientUnits="userSpaceOnUse" fy="221.4495" fx="-70.2722" r="110.2065" cy="188.8391" cx="11.1614" id="_75751816_1_">
		<stop id="stop317" style="stop-color:#75511A" offset="0.6154"/>
		<stop id="stop319" style="stop-color:#57401E" offset="0.9112"/>
	</radialGradient>
	
	
	
	<radialGradient gradientUnits="userSpaceOnUse" r="87.0598" cy="218.4485" cx="19.7366" id="_75766760_1_">
		<stop id="stop325" style="stop-color:#DEBC85" offset="0"/>
		<stop id="stop327" style="stop-color:#75511A" offset="0.6154"/>
		<stop id="stop329" style="stop-color:#A67D59" offset="0.9112"/>
	</radialGradient>
	
<radialGradient inkscape:collect="always" xlink:href="#_75766760_1_" id="radialGradient4275" gradientUnits="userSpaceOnUse" cx="19.7366" cy="218.4485" r="87.0598"/><linearGradient inkscape:collect="always" xlink:href="#_75751816_1_" id="linearGradient4277" x1="-20.384209" y1="224.06075" x2="-19.677101" y2="178.0988" gradientUnits="userSpaceOnUse"/><radialGradient inkscape:collect="always" xlink:href="#radialGradient3689" id="radialGradient3697" gradientUnits="userSpaceOnUse" gradientTransform="translate(-0.565612,6.7533072)" cx="11.1614" cy="188.8391" fx="-70.272202" fy="221.44949" r="110.2065"/><radialGradient inkscape:collect="always" xlink:href="#_75751816_1_" id="radialGradient4684" gradientUnits="userSpaceOnUse" gradientTransform="translate(8.9644544e-2,-0.4919341)" cx="11.1614" cy="188.8391" fx="-70.2722" fy="221.4495" r="110.2065"/><linearGradient inkscape:collect="always" xlink:href="#radialGradient4672" id="linearGradient5669" x1="-46.336353" y1="175.65396" x2="66.76265" y2="175.65396" gradientUnits="userSpaceOnUse" gradientTransform="translate(1.0251257,0.7018995)"/><radialGradient inkscape:collect="always" xlink:href="#XMLID_7_" id="radialGradient6652" cx="-57.595703" cy="-47.291496" fx="-57.595703" fy="-47.291496" r="3.005204" gradientTransform="matrix(7.9133778,3.7010343,-1.6395812,3.5056794,414.64262,549.16101)" gradientUnits="userSpaceOnUse"/><radialGradient inkscape:collect="always" xlink:href="#XMLID_7_" id="radialGradient6656" gradientUnits="userSpaceOnUse" gradientTransform="matrix(0.1723957,3.0622335,-7.7913841,0.4386375,-350.42384,367.29005)" cx="-57.595703" cy="-47.291496" fx="-57.595703" fy="-47.291496" r="3.005204"/><radialGradient inkscape:collect="always" xlink:href="#XMLID_7_" id="radialGradient6660" gradientUnits="userSpaceOnUse" gradientTransform="matrix(2.117647,-4.2352941,1.6836276,0.8418135,216.38373,-17.605351)" cx="-57.595703" cy="-47.291496" fx="-57.595703" fy="-47.291496" r="3.005204"/><radialGradient inkscape:collect="always" xlink:href="#XMLID_7_" id="radialGradient6664" gradientUnits="userSpaceOnUse" gradientTransform="matrix(7.9133778,3.7010343,-1.6395812,3.5056794,378.21711,559.3599)" cx="-57.595703" cy="-47.291496" fx="-57.595703" fy="-47.291496" r="3.005204"/><radialGradient inkscape:collect="always" xlink:href="#XMLID_7_" id="radialGradient6668" gradientUnits="userSpaceOnUse" gradientTransform="matrix(7.9133778,3.7010343,-1.6395812,3.5056794,366.24654,552.70565)" cx="-57.595703" cy="-47.291496" fx="-57.595703" fy="-47.291496" r="3.005204"/><radialGradient inkscape:collect="always" xlink:href="#XMLID_7_" id="radialGradient6672" gradientUnits="userSpaceOnUse" gradientTransform="matrix(7.9133778,3.7010343,-1.6395812,3.5056794,360.16812,558.8599)" cx="-57.595703" cy="-47.291496" fx="-57.595703" fy="-47.291496" r="3.005204"/><radialGradient inkscape:collect="always" xlink:href="#XMLID_7_" id="radialGradient6676" gradientUnits="userSpaceOnUse" gradientTransform="matrix(7.9133778,3.7010343,-1.6395812,3.5056794,351.91767,565.26936)" cx="-57.595703" cy="-47.291496" fx="-57.595703" fy="-47.291496" r="3.005204"/></defs><sodipodi:namedview inkscape:window-height="936" inkscape:window-width="1270" inkscape:pageshadow="2" inkscape:pageopacity="0.0" guidetolerance="10.0" gridtolerance="10.0" objecttolerance="10.0" borderopacity="1.0" bordercolor="#666666" pagecolor="#ffffff" id="base" inkscape:zoom="1" inkscape:cx="256.10668" inkscape:cy="463.57957" inkscape:window-x="0" inkscape:window-y="0" inkscape:current-layer="Livello_1" showgrid="false"/>
<metadata id="CorelCorpID_0Corel-Layer">
	<ns:sfw>
		<ns:slices/>
		<ns:sliceSourceBounds x="-263.176" y="-335.405" height="700.32" width="555.068" bottomLeftOrigin="true"/>
	</ns:sfw>
<rdf:RDF><cc:Work rdf:about=""><dc:format>image/svg+xml</dc:format><dc:type rdf:resource="http://purl.org/dc/dcmitype/StillImage"/></cc:Work></rdf:RDF></metadata>


<linearGradient id="_75856992_1_" gradientUnits="userSpaceOnUse" x1="124.925" y1="-101.6057" x2="209.9253" y2="-101.6057">
	<stop offset="0" style="stop-color:#FFFFFF" id="stop8"/>
	<stop offset="1" style="stop-color:#000000" id="stop10"/>
</linearGradient>

<linearGradient id="_76248112_1_" gradientUnits="userSpaceOnUse" x1="45.925" y1="-98.7815" x2="-7.0751" y2="-98.7815">
	<stop offset="0" style="stop-color:#FFFFFF" id="stop14"/>
	<stop offset="1" style="stop-color:#000000" id="stop16"/>
</linearGradient>

<radialGradient id="_76248280_1_" cx="121.4055" cy="-59.28" r="32.6259" fx="99.4821" fy="-35.1178" gradientUnits="userSpaceOnUse">
	<stop offset="0.6982" style="stop-color:#FFFFFF" id="stop20"/>
	<stop offset="1" style="stop-color:#A8DDE0" id="stop22"/>
</radialGradient>


<radialGradient id="_75751312_1_" cx="39.0081" cy="-56.5789" r="28.5767" fx="62.4288" fy="-40.2052" gradientUnits="userSpaceOnUse">
	<stop offset="0.6982" style="stop-color:#FFFFFF" id="stop27"/>
	<stop offset="1" style="stop-color:#A8DDE0" id="stop29"/>
</radialGradient>







<radialGradient id="_75832648_1_" cx="220.7571" cy="447.47391" r="207.6411" gradientUnits="userSpaceOnUse" fx="220.7571" fy="447.47391">
	<stop offset="0" style="stop-color:#FFDD00" id="stop54"/>
	<stop offset="0.5799" style="stop-color:#FFEB55" id="stop56"/>
	<stop offset="1" style="stop-color:#FFCC00" id="stop58"/>
</radialGradient>


<radialGradient id="XMLID_5_" cx="154.925" cy="191.6194" r="209.9999" gradientUnits="userSpaceOnUse">
	<stop offset="0" style="stop-color:#888A85" id="stop78"/>
	<stop offset="0.6923" style="stop-color:#000000" id="stop80"/>
</radialGradient>

<linearGradient id="_75751096_1_" gradientUnits="userSpaceOnUse" x1="242.925" y1="186.9436" x2="271.925" y2="186.9436">
	<stop offset="0" style="stop-color:#FFFFFF" id="stop85"/>
	<stop offset="1" style="stop-color:#ffffff;stop-opacity:0.07594936;" id="stop87"/>
</linearGradient>

<linearGradient id="_76248952_1_" gradientUnits="userSpaceOnUse" x1="228.3743" y1="261.9944" x2="302.3743" y2="261.9944">
	<stop offset="0" style="stop-color:#FFFFFF" id="stop91"/>
	<stop offset="1" style="stop-color:#000000" id="stop93"/>
</linearGradient>

<radialGradient id="_75751672_1_" cx="-30.075" cy="211.6194" r="83" gradientUnits="userSpaceOnUse">
	<stop offset="0" style="stop-color:#888A85" id="stop97"/>
	<stop offset="0.6923" style="stop-color:#000000" id="stop99"/>
</radialGradient>

<linearGradient id="XMLID_6_" gradientUnits="userSpaceOnUse" x1="97.2258" y1="-133.7776" x2="97.2258" y2="-223.7727">
	<stop offset="0" style="stop-color:#63513E" id="stop103"/>
	<stop offset="0.3787" style="stop-color:#917049" id="stop105"/>
	<stop offset="0.6154" style="stop-color:#B3925D" id="stop107"/>
	<stop offset="1" style="stop-color:#776D61" id="stop109"/>
</linearGradient>

<linearGradient id="XMLID_7_" gradientUnits="userSpaceOnUse" x1="9.3748" y1="-185.032" x2="182.0745" y2="-185.032">
	<stop offset="0" style="stop-color:#007b00;stop-opacity:1;" id="stop114"/>
	<stop offset="0.27810001" style="stop-color:#00a200;stop-opacity:1;" id="stop116"/>
	<stop offset="0.29139999" style="stop-color:#08aa04;stop-opacity:1;" id="stop118"/>
	<stop offset="0.361" style="stop-color:#30bc17;stop-opacity:1;" id="stop120"/>
	<stop offset="0.42950001" style="stop-color:#50c225;stop-opacity:1;" id="stop122"/>
	<stop offset="0.49579999" style="stop-color:#66c230;stop-opacity:1;" id="stop124"/>
	<stop offset="0.5589" style="stop-color:#73be36;stop-opacity:1;" id="stop126"/>
	<stop offset="0.61540002" style="stop-color:#78c238;stop-opacity:1;" id="stop128"/>
	<stop offset="1" style="stop-color:#007100;stop-opacity:1;" id="stop130"/>
</linearGradient>

<linearGradient id="XMLID_8_" gradientUnits="userSpaceOnUse" x1="96.932404" y1="-163.31081" x2="89.432899" y2="-209.8082">
	<stop offset="0" style="stop-color:#004D00" id="stop135"/>
	
	
	
	
	
	
	
	
	<stop offset="1" style="stop-color:#004d00;stop-opacity:0;" id="stop153"/>
</linearGradient>

<linearGradient id="XMLID_9_" gradientUnits="userSpaceOnUse" x1="-13.2664" y1="78.4417" x2="148.7493" y2="78.4417">
	<stop offset="0" style="stop-color:#820503;stop-opacity:1;" id="stop158"/>
	<stop offset="0.1893" style="stop-color:#cf1a14;stop-opacity:1;" id="stop160"/>
	<stop offset="0.4734" style="stop-color:#9e0300;stop-opacity:1;" id="stop162"/>
	<stop offset="0.69230002" style="stop-color:#d33632;stop-opacity:1;" id="stop164"/>
</linearGradient>

<linearGradient id="XMLID_10_" gradientUnits="userSpaceOnUse" x1="38.3196" y1="112.3137" x2="51.1655" y2="112.3137">
	<stop offset="0.0592" style="stop-color:#e00b05;stop-opacity:1;" id="stop169"/>
	<stop offset="1" style="stop-color:#ba1801;stop-opacity:1;" id="stop171"/>
</linearGradient>

<linearGradient id="XMLID_11_" gradientUnits="userSpaceOnUse" x1="97.1873" y1="126.1995" x2="120.5622" y2="126.1995">
	<stop offset="0.0592" style="stop-color:#e21607;stop-opacity:1;" id="stop176"/>
	<stop offset="1" style="stop-color:#b70505;stop-opacity:1;" id="stop178"/>
</linearGradient>










<radialGradient id="XMLID_12_" cx="40.1204" cy="-49.8806" r="15.0414" fx="51.4952" fy="-40.3807" gradientTransform="matrix(1.1429 0 0 1 -3.9288 0)" gradientUnits="userSpaceOnUse">
	<stop offset="0.503" style="stop-color:#555555" id="stop192"/>
	<stop offset="1" style="stop-color:#000000" id="stop194"/>
</radialGradient>

<radialGradient id="XMLID_13_" cx="118.1418" cy="-51.1414" r="15.041" fx="108.0825" fy="-39.9592" gradientTransform="matrix(1.381 0 0 1.1622 -44.7271 8.555)" gradientUnits="userSpaceOnUse">
	<stop offset="0.3787" style="stop-color:#555555" id="stop199"/>
	<stop offset="1" style="stop-color:#000000" id="stop201"/>
</radialGradient>



<radialGradient id="XMLID_14_" cx="175.925" cy="3.6194" r="91.923897" gradientUnits="userSpaceOnUse">
	<stop offset="0.3373" style="stop-color:#e00000;stop-opacity:1;" id="stop208"/>
	<stop offset="0.82249999" style="stop-color:#ad0509;stop-opacity:1;" id="stop210"/>
</radialGradient>


<radialGradient id="XMLID_15_" cx="216.51" cy="92.7112" r="102.8792" gradientUnits="userSpaceOnUse">
	<stop offset="0" style="stop-color:#cb1f0d;stop-opacity:1;" id="stop216"/>
	<stop offset="0.79290003" style="stop-color:#aa0703;stop-opacity:1;" id="stop218"/>
	<stop offset="1" style="stop-color:#b71207;stop-opacity:1;" id="stop220"/>
</radialGradient>





<radialGradient id="_75767264_1_" cx="-4.2659001" cy="426.47189" r="215.1239" gradientUnits="userSpaceOnUse" fx="-4.2659001" fy="426.47189">
	<stop offset="0" style="stop-color:#FFDD00" id="stop229"/>
	<stop offset="0.41255459" style="stop-color:#FFEB55" id="stop231"/>
	<stop offset="1" style="stop-color:#FFCC00" id="stop233"/>
</radialGradient>


<linearGradient id="XMLID_18_" gradientUnits="userSpaceOnUse" x1="1.9333" y1="469.2356" x2="1.9333" y2="382.4236">
	<stop offset="0.2959" style="stop-color:#E3AD00" id="stop253"/>
	<stop offset="1" style="stop-color:#FFCC00" id="stop255"/>
</linearGradient>

<radialGradient id="XMLID_19_" cx="100.925" cy="-40.3806" r="93.6304" gradientUnits="userSpaceOnUse">
	<stop offset="0.1893" style="stop-color:#FFEA00" id="stop260"/>
	<stop offset="0.5799" style="stop-color:#FFFF00" id="stop262"/>
	<stop offset="1" style="stop-color:#FFCC00" id="stop264"/>
</radialGradient>

<linearGradient id="XMLID_20_" gradientUnits="userSpaceOnUse" x1="72.925" y1="-1.6057" x2="141.925" y2="-1.6057">
	<stop offset="0.2959" style="stop-color:#E3AD00" id="stop269"/>
	<stop offset="1" style="stop-color:#FFEB55" id="stop271"/>
</linearGradient>

<linearGradient id="XMLID_21_" gradientUnits="userSpaceOnUse" x1="7.925" y1="7.8118" x2="105.9251" y2="7.8118">
	<stop offset="0.2959" style="stop-color:#E3AD00" id="stop276"/>
	<stop offset="1" style="stop-color:#FFCC00" id="stop278"/>
</linearGradient>

<linearGradient id="XMLID_22_" gradientUnits="userSpaceOnUse" x1="106.5559" y1="-51.5901" x2="141.0537" y2="-86.0879" gradientTransform="matrix(1.0247 0.3354 -0.2746 1.0947 -23.4435 -37.8246)">
	<stop offset="0" style="stop-color:#FFFFFF" id="stop283"/>
	<stop offset="1" style="stop-color:#ffffff;stop-opacity:0;" id="stop285"/>
</linearGradient>

<linearGradient id="XMLID_23_" gradientUnits="userSpaceOnUse" x1="24.3635" y1="-54.8572" x2="58.8633" y2="-89.3569" gradientTransform="matrix(0.7488 0.734 -0.6754 0.9381 -35.422 -31.2956)">
	<stop offset="0" style="stop-color:#FFFFFF" id="stop290"/>
	<stop offset="1" style="stop-color:#ffffff;stop-opacity:0;" id="stop292"/>
</linearGradient>

<linearGradient id="XMLID_24_" gradientUnits="userSpaceOnUse" x1="115.9241" y1="197.5032" x2="88.925" y2="197.5032" gradientTransform="matrix(0 1 -1 0 246.4507 28.4561)">
	<stop offset="0.0592" style="stop-color:#e33207;stop-opacity:1;" id="stop297"/>
	<stop offset="0.65679997" style="stop-color:#840100;stop-opacity:1;" id="stop299"/>
</linearGradient>

<linearGradient id="XMLID_25_" gradientUnits="userSpaceOnUse" x1="106.3762" y1="62.6194" x2="106.3762" y2="96.6194">
	<stop offset="0" style="stop-color:#a4001a;stop-opacity:1;" id="stop304"/>
	<stop offset="0.2071" style="stop-color:#cf1005;stop-opacity:1;" id="stop306"/>
	<stop offset="0.60949999" style="stop-color:#931005;stop-opacity:1;" id="stop308"/>
	<stop offset="0.88169998" style="stop-color:#d61605;stop-opacity:1;" id="stop310"/>
</linearGradient>


<linearGradient id="XMLID_26_" gradientUnits="userSpaceOnUse" x1="90.1321" y1="145.8264" x2="102.6321" y2="133.3264">
	<stop offset="0.0592" style="stop-color:#da0901;stop-opacity:1;" id="stop333"/>
	<stop offset="1" style="stop-color:#ab0903;stop-opacity:1;" id="stop335"/>
</linearGradient>

<linearGradient id="XMLID_27_" gradientUnits="userSpaceOnUse" x1="128.925" y1="137.5032" x2="101.9251" y2="137.5032">
	<stop offset="0.0592" style="stop-color:#fa051a;stop-opacity:1;" id="stop340"/>
	<stop offset="1" style="stop-color:#c60901;stop-opacity:1;" id="stop342"/>
</linearGradient>

<linearGradient id="XMLID_28_" gradientUnits="userSpaceOnUse" x1="67.5037" y1="109.1326" x2="77.5993" y2="99.0369">
	<stop offset="0.0592" style="stop-color:#e00901;stop-opacity:1;" id="stop347"/>
	<stop offset="1" style="stop-color:#99100d;stop-opacity:1;" id="stop349"/>
</linearGradient>

<linearGradient id="XMLID_29_" gradientUnits="userSpaceOnUse" x1="71.503197" y1="105.1331" x2="81.5989" y2="95.037399" gradientTransform="matrix(0,1,-1,0,176.6362,22.1953)" xlink:href="#XMLID_30_">
	<stop offset="0.0592" style="stop-color:#eb0700;stop-opacity:1;" id="stop354"/>
	<stop offset="1" style="stop-color:#950100;stop-opacity:1;" id="stop356"/>
</linearGradient>

<linearGradient id="XMLID_30_" gradientUnits="userSpaceOnUse" x1="80.5042" y1="102.134" x2="90.5999" y2="92.0383" gradientTransform="matrix(0 1 -1 0 176.6362 22.1953)">
	<stop offset="0.0592" style="stop-color:#d80905;stop-opacity:1;" id="stop361"/>
	<stop offset="1" style="stop-color:#8f0901;stop-opacity:1;" id="stop363"/>
</linearGradient>

<linearGradient id="XMLID_31_" gradientUnits="userSpaceOnUse" x1="104.3137" y1="-122.5476" x2="107.9061" y2="-165.661">
	<stop offset="0.4793" style="stop-color:#75511A" id="stop368"/>
	<stop offset="1" style="stop-color:#75511a;stop-opacity:0.02352941;" id="stop370"/>
</linearGradient>

<g id="g2623"><path sodipodi:nodetypes="cccccccc" d="M 5.3749995,368.444 C 7.7739995,371.144 10.774,415.295 10.975,416.594 C 11.576,421.594 23.475,448.794 23.475,448.794 C 52.975,439.294 93.975,435.294 146.376,436.794 L 190.376,440.693 L 192.876,320.193 L 101.626,383.443 L 5.3749995,368.444 z " id="_75767336"/><path id="path5" d="M96.275-152.207l-94.5,10.5c-0.2,0.7-0.3,21.4-0.4,22.101c-0.2,4.7-0.7,9.5-1.399,14.2c0.199,0,0.399-0.101,0.699-0.101  l-0.699,0.101c-1.601,39.8,0.6,79.5,6.399,119.1v9.2c7.217,6.059,8.2-0.301,15,7.8c0,0.1,0,0.1,0.101,0.1  c-2.7-5.8-1.7-10.5,2.899-14.1l-10-13l135.201,5.6l0.8,5.4l13.3,32l13.25-0.408l32.667-18c0,0-2.667-26-5.217-41.192  c0-0.2,0-0.301,0-0.4l-2.199-33.7l-0.801-8.2l-7-64.999c-4.6-2.9-9.399-25.501-14.399-28.001L96.275-152.207z"/><path d="M122.777-109.906c9-0.801,16.7,2,23,8.399c6.4,6.4,10.4,10.7,12.3,12.8  c-0.899-9.399-6.2-16.899-15.899-22.3c-9.801-5.5-21.801-4.5-36.101,2.9C108.277-108.507,113.876-109.007,122.777-109.906  L122.777-109.906z" fill="url(#_75856992_1_)" id="_75856992"/><path d="M49.274-108.007c-18-5.7-29.699,1.101-35.199,20.4  C19.775-100.906,31.575-107.707,49.274-108.007z" fill="url(#_76248112_1_)" id="_76248112"/><path d="M103.689-25.926c11.551,0.51,23.103,1.02,34.653,1.529  c23.019,1.016,10.558-48.412,3.258-57.335c-12.341-15.083-38.667-18.838-46.526,2.225C86.709-57.91,93.062-44.034,103.689-25.926" fill="url(#_76248280_1_)" id="_76248280_19_"/><path d="M9.675-180.606l-0.3-5.3c0,1.5,0.1,3,0.2,4.5C9.675-181.106,9.675-180.806,9.675-180.606  L9.675-180.606z" fill="#776D61" id="_75751240"/><path d="M60.375-45.507c2.272-18.478-0.866-45.441-24.769-44.979  c-20.635,0.399-20.283,31.049-16.719,44.867c5.769,22.366,13.453,21.525,33.171,22.938C60.352-22.087,59.111-38.405,60.375-45.507" fill="url(#_75751312_1_)" id="_75751312_12_"/><path d="M39.575-32.906l-2.801,2.399C37.375-31.007,38.375-31.806,39.575-32.906z" fill="#AF9E69" id="_75751456"/><path d="M-0.026-105.406l0.7-0.101C0.375-105.507,0.175-105.406-0.026-105.406z" fill="#776D61" id="_75751528"/><g style="filter:url(#filter3487)" id="g34">
	<linearGradient y2="-8.3806" x2="21.4236" y1="154.6194" x1="21.4236" gradientUnits="userSpaceOnUse" id="XMLID_1_">
		<stop id="stop37" style="stop-color:#FFFFFF" offset="0"/>
		<stop id="stop39" style="stop-color:#BFD9FF" offset="1"/>
	</linearGradient>
	<path fill="url(#XMLID_1_)" id="path41" d="M21.474,30.793C21.322,30.539,21.359,30.793,21.474,30.793"/>
	<linearGradient y2="-8.3806" x2="89.2947" y1="154.6194" x1="89.2947" gradientUnits="userSpaceOnUse" id="XMLID_2_">
		<stop id="stop44" style="stop-color:#FFFFFF" offset="0"/>
		<stop id="stop46" style="stop-color:#BFD9FF" offset="1"/>
	</linearGradient>
	<path fill="url(#XMLID_2_)" id="path48" d="M181.375,87.695c-12.487-23.585-21.45-52.075-31.801-78.401L73.925,28.619L24.374,16.694   c-8.843,6.921-0.104,29.662-4.346,40.014C14.674,69.77,0.465,81.784-7.075,95.619s-20,56-25.725,72.013   c-21.146,59.148-13.448,85.64,11.841,140.414c10.575,22.904,19.256,48.558,32.592,70.019c17.69,28.468,57.586,27.73,87.372,23.148   c30.355-4.67,82.318-27.666,93.756-60.507c16.164-30.087,28.064-44.937,30.614-98.012S209.925,141.619,181.375,87.695z"/>
</g><path d="M-4.526,96.792c0.4-1.1,0.9-2.3,1.5-3.8c-0.6,1.2-1.1,2.5-1.6,3.7  C-4.625,96.693-4.625,96.693-4.526,96.792L-4.526,96.792z" fill="#8F5444" id="_75766544"/><path d="M19.675,389.994c0.2-0.2-0.9-1.601-3.3-4.3l3,5  C19.375,390.494,19.474,390.195,19.675,389.994z" fill="#6D685A" id="_75832384"/><polygon points="23.474,448.793 24.375,446.693 23.474,447.895 " fill="#6F6B62" id="_75832480"/><path style="fill:url(#linearGradient3104)" d="M314.376,279.693c-15.842,7.336-82.861,11.396-88-3  c-9.01-6.557-33.655-5.284-34.15,8.05c-1.456,39.219-2.785,76.843-7.263,115.917c-2.464,21.502-6.757,35.457,2.416,54.799  c21.677,45.706,87.105-5.391,107.59-21.292c24.837-19.281,86.646-32.898,78.032-71.661c-1.797-8.087-29.219-22.905-36.025-31.346  C323.797,314.816,330.67,291.869,314.376,279.693" fill="url(#_75832648_1_)" id="_75832648"/><g id="g61">
	<linearGradient y2="283.0188" x2="200.9251" y1="283.0188" x1="186.925" gradientUnits="userSpaceOnUse" id="XMLID_3_">
		<stop id="stop64" style="stop-color:#E3AD00" offset="0.2959"/>
		<stop id="stop66" style="stop-color:#FFCC00" offset="1"/>
	</linearGradient>
	<path id="path68" d="M317.12,282.051c-0.835-0.823-1.745-1.611-2.744-2.358c-7.415,3.434-26.045,6.149-44.292,6.591   C286.751,286.709,305.647,284.867,317.12,282.051z" fill="url(#XMLID_3_)"/>
	<linearGradient y2="373.4319" x2="200.925" y1="373.4319" x1="186.925" gradientUnits="userSpaceOnUse" id="XMLID_4_">
		<stop id="stop71" style="stop-color:#E3AD00" offset="0.2959"/>
		<stop id="stop73" style="stop-color:#FFCC00" offset="1"/>
	</linearGradient>
	<path id="path75" d="M197.379,455.458c-9.173-19.342-4.88-33.297-2.416-54.799c4.478-39.074,5.807-76.698,7.263-115.917   c0.252-6.799,6.785-10.455,14.32-11.544c-10.642-1.512-23.958,1.777-24.32,11.544c-1.456,39.219-2.785,76.843-7.263,115.917   c-2.464,21.502-6.757,35.457,2.416,54.799c7.333,15.462,19.676,19.837,33.589,18.253   C211.247,472.442,202.895,467.089,197.379,455.458z" fill="url(#XMLID_4_)"/>
</g><path id="path82" d="M220.376,26.694c-0.9,2.8-1.5,4.8-1.7,6.3c-2.3,11.2-6.5,21.601-12.8,31.101  c-6.3,9.699-14.5,17.5-24.5,23.6c2.8,5.899,5.101,10.8,7,14.8c15.1,31,25.3,63.7,30.7,98.101c1.199,7.699,2.3,15.399,3.3,23.1l1,19  c0.1,1.2,0.1,2.3,0.1,3.5c0,9.2-1.699,18.1-5.1,26.5l8,4c14.6,40.9,31.7,53.6,51.2,38.2c19.5-15.5,30.1-27.2,31.8-35.2l0.8-0.8  c11.9-18.9,11-52.7-2.899-101.4c-0.7-2.3-1.501-4.5-2.301-6.8c-6.699-19.301-15.3-38-25.6-56l-4-6l-11-14l-6-9L220.376,26.694z" fill="url(#XMLID_5_)"/><path d="M216.476,122.194c40.172,29.491,49.268,84.215,34.899,129.5  C278.863,212.438,264.744,139.296,216.476,122.194" fill="url(#_75751096_1_)" id="_75751096"/><path d="M302.374,269.695c-24.601-20.399-49.3-20.5-74-0.5  C254.374,255.895,278.974,256.095,302.374,269.695z" fill="url(#_76248952_1_)" id="_76248952"/><path sodipodi:nodetypes="ccscsccscccc" d="M -2.936,38.761 C -9.867,72.252 -44.448,107.295 -59.539,138.331 C -74.817,169.754 -117.94,223.467 -107.461,259.694 C -104.353,270.439 -88.31,276.411 -78.904,284.665 C -59.269,301.894 -40.82,320.519 -22.563,339.186 C -11.667,350.327 -0.479,361.375 9.72,373.171 C 23.103,388.652 59.87,343.951 29.273,330.344 C -19.074,299.619 -39.435,244.461 -41.074,228.619 C -42.713,212.777 -36.772,181.215 -29.048,160.193 C -20.966,138.203 -4.16,95.43 -4.935,97.36 C 1.474,79.98 22.481,66.559 19.926,54.619 C 18.757,49.161 9.8240001,40.995 -1.6859999,36.511" fill="url(#_75751672_1_)" id="_75751672_2_"/><path id="path111" d="M217.477-158.606c-11.834-2.089-23.589-4.614-35.34-7.144c-0.248-16.098-2.204-45.454-13.062-48.557  c-28.987-8.763-57.706-13.108-88.066-11.742c-15.382,0.692-30.629,3.574-45.234,8.442c-20.304,6.767-27.33,9.727-26.399,31.7  c0.608,6.269,1.501,11.514,2.477,15.835c-16.378,4.027-32.326,9.559-47.476,16.765c-4.402,2.111-47.49,22.455-34,29.2  c20.12,10.702,47.697,13.224,69.6,18.7c7.23-48.534,94.329-39.188,132.901-34.9c22.212,2.468,42.479,8.109,61.5,20.1  c20.455-1.677,43.032-3.179,62.362-10.612C290.564-143.826,228.088-155.954,217.477-158.606z" fill="url(#XMLID_6_)"/><path id="path132" d="M10.374-169.306c52.2-13.6,109.401-12.3,171.701,4l-0.276-10.109  c-0.15-2.708-0.357-5.532-0.642-8.374c-60.844-27.216-118.105-27.958-171.782-2.118c0,0,0,0,0,0  c0.608,6.269,1.501,11.514,2.477,15.835c-0.501,0.123-0.998,0.261-1.499,0.387C10.361-169.55,10.367-169.423,10.374-169.306z" fill="url(#XMLID_7_)"/><path style="fill-opacity:1.0" id="path155" d="M10.928-174.629c0.295,1.617,0.604,3.142,0.923,4.558  c-0.501,0.123-0.998,0.261-1.499,0.387c0.008,0.134,0.015,0.261,0.021,0.377c52.086-13.57,109.152-12.302,171.293,3.896  c-0.136-2.093-0.295-4.222-0.511-6.379C120.899-198.743,64.156-199.714,10.928-174.629z" fill="url(#XMLID_8_)" opacity="0.5"/><path fill="url(#XMLID_9_)" id="path166" d="M218.975,15.993c-2.234-10.872-7.42-20.876-14.6-29.3c0,53.307-68.633,71.18-103.926,91.894  c-6.432,3.775-15.17,12.979-23.141,9.684c-11.089-4.583-18.312-22.814-27.186-30.686c-9.473-8.404-18.544-17.254-27.751-25.95  c-6.672-6.302-12.549-14.724-20.157-4.634c-11.988,15.9,2.407,13.114,10.66,23.492C23.72,64.955,40.138,73.371,50.167,88.56  c3.023,4.578,13.179,10.694,7.729,15.774c-5.671,5.286-17.035,0.423-17.937,7.715c-1.729,13.981-3.457,27.963-5.185,41.944  c21.985-8.184,44.448-18.186,43.399-46.7c2.609,12.759,7.455,66.22,28.934,62.733c14.145-2.296,21.292-17.366,23.467-29.934  c3.006-16.293-20.399-30.541-31.301-37.6c25.1-0.894,55.283-0.909,78.298-12.596C201.687,77.652,225.195,43.954,218.975,15.993"/><path id="path173" d="M39.96,112.049c-0.259,2.093-0.518,4.186-0.776,6.278c4.154-1.659,11.633-0.163,15.965-3.993  c2.857-2.527,1.643-5.311-0.691-8.035C48.546,108.28,40.703,106.041,39.96,112.049z" fill="url(#XMLID_10_)"/><path id="path180" d="M130.525,140.368c0.017-0.092,0.035-0.185,0.051-0.275c1.979-10.732-7.499-20.576-17.316-28.063  c-4.952,0.173-9.811,0.305-14.499,0.463C107.892,118.104,125.335,128.258,130.525,140.368z" fill="url(#XMLID_11_)"/><polygon points="-16.625,171.693 -13.125,176.095 -9.726,171.693 " fill="#A67D59" id="_75751912"/><polygon points="-19.625,175.693 -12.825,181.895 -13.226,177.895 " fill="#A67D59" id="_75765176"/><path d="M29.775,157.992c0-0.1,0-0.1,0-0.1s0,0-0.101,0  C29.775,157.893,29.775,157.893,29.775,157.992z" fill="#FFFFFF" id="_75765248"/><path d="M10.774,169.294l-1,1.5l-6.399-2.1l6,7c0,0.3,0.1,0.5,0.3,0.8c0.2,0.101,0.5,0.2,0.7,0.2  l4.399,1.8l2.101-5.3L10.774,169.294z" fill="#A67D59" id="_75765320"/><path d="M29.474,169.193c0.301-1.101,0.301-2.2-0.1-3.501l-0.1,3.501H29.474z" id="_75765392"/><path d="M29.375,165.695h-0.1l-3.9-3v7l0.4,3l-2.4,2.1c2.6-0.5,4.5-1.899,5.6-4.199  c0.301-0.5,0.4-0.9,0.5-1.4h-0.199L29.375,165.695L29.375,165.695z" fill="#A67D59" id="_75765464"/><path d="M29.375,165.695h-0.1H29.375z" fill="#8F5444" id="_75765536"/><path d="M19.675,182.694v-2h-6.3l1,3c0,0.3,0.1,0.5,0.3,0.801c0.2,0.1,0.5,0.199,0.7,0.199l3,1.101  l1-2.101L19.675,182.694L19.675,182.694z" fill="#A67D59" id="_75765608"/><path d="M53.575,301.395l-0.7,1.9c0,0,0,0,0.1,0L53.575,301.395z" fill="#A67D59" id="_75765680"/><ellipse id="ellipse196" ry="18.5" rx="12" cy="-49.881" cx="41.925" fill="url(#XMLID_12_)"/><ellipse id="ellipse203" ry="21.5" rx="14.5" cy="-50.881" cx="118.425" fill="url(#XMLID_13_)"/><polygon points="32.274,192.094 31.075,189.693 25.375,194.693 27.875,197.593 " fill="#70614E" id="_75766040"/><path style="fill-opacity:1.0" fill="url(#XMLID_14_)" id="path212" d="M89.925,97.619c0,0,69.588-18.407,86.087-19.907s51.043-41.648,39.021-74.071l-19.521,24.574  l-13.5,31.499l-43.497,14.999L89.925,97.619z"/><polygon points="7.375,155.694 6.375,155.694 9.774,159.792 11.775,159.393 " fill="#A67D59" id="_75766616"/><path id="path222" d="M209.532-3.306c0,0,20.393,49.926-51.607,77.926c-21,9-25,2-68,23c0,0,22-20,55-34  S204.14,29.768,209.532-3.306z" fill="url(#XMLID_15_)"/><polygon points="-0.625,181.694 4.375,182.694 7.575,177.994 0.474,175.794 1.575,178.595   -2.625,179.695 " fill="#A67D59" id="_75766688"/><path d="M-29.026,235.792" fill="#FAFAFA" id="_75766832"/><path d="M50.375,212.693c-0.3,0.801-0.7,1.601-1,2.4c-2.7,6.6-2.6,13.2,0,19.6  c-1.9-6.199-1.8-12.399,0.2-18.699c0.3-0.7,0.6-1.5,0.8-2.301V212.693L50.375,212.693z" fill="#9A9897" id="_75767072"/><path d="M50.375,212.693v1c1.9-2.5,3.6-4.8,5.2-7.1C53.974,208.693,52.275,210.693,50.375,212.693  L50.375,212.693z" fill="#999897" id="_75767168"/><path sodipodi:nodetypes="cccccccccccccccc" id="_75766760" d="M 21.375,184.56967 C 8.1913582,187.59655 -7.1712725,188.59326 -20.28601,190.47821 C -27.016475,192.05762 -33.134083,196.70985 -40.305343,195.82724 C -46.850345,195.76498 -39.333065,200.44528 -37.961328,203.30062 C -34.512464,208.01349 -31.56136,212.70253 -29.928791,217.61903 C -26.291351,229.2428 -30.106005,243.13439 -33.428554,254.38677 C -28.385782,272.71105 -16.537958,286.67869 -4.65222,301.18415 C 4.8944628,312.02762 14.896855,323.16029 27.840866,329.97842 C 29.644142,332.18421 38.494201,330.44795 32.925,331.46738 C 40.02037,322.51217 45.191464,312.09601 50.75946,302.1002 C 59.031747,288.53573 59.634959,271.01065 53.772893,256.77545 C 49.735457,247.28299 39.837947,227.74692 40.155981,221.67779 C 36.983149,221.81765 57.273699,188.97907 49.426259,189.92057 C 40.44495,188.7625 29.494169,180.00797 21.375,184.56967 z M -29.025999,234.89301 C -28.801823,234.45878 -28.912342,235.56308 -29.025999,234.89301 z" style="fill:url(#radialGradient4275)"/><path style="fill:url(#_75767264_1_)" d="M-76.125,258.294c-21.734-4.282-29.312,15.187-39.148,30.319  c-9.071,13.956-22.796,17.433-37.727,24.118c-18.989,8.501-29.329,8.352-23.744,29.378c3.521,13.254,6.607,28.82,2.119,42.284  c-5.127,15.258-12.943,31.237,2.28,41.055c17.328,11.176,38.105,16.91,58.72,16.245c38.446,7.4,119.272,57.375,140.2-0.899  c-0.367,1.167-0.733,2.333-1.101,3.5c10.826-26.646-0.043-44.027-13.841-66.23c-10.706-17.229-26.016-31.146-35.259-49.37  C-33.744,305.42-52.781,270.215-76.125,258.294" fill="url(#_75767264_1_)" id="_75767264"/><g id="g236">
	<linearGradient y2="284.4553" x2="-122.8245" y1="329.4602" x1="-122.8245" gradientUnits="userSpaceOnUse" id="XMLID_16_">
		<stop id="stop239" style="stop-color:#E3AD00" offset="0.2959"/>
		<stop id="stop241" style="stop-color:#FFCC00" offset="1"/>
	</linearGradient>
	<path id="path243" d="M-150.993,317.732c15.992-6.686,30.692-10.162,40.408-24.118   c10.535-15.133,18.651-34.602,41.93-30.319c0.419,0.2,0.833,0.423,1.25,0.636c-2.831-2.208-5.74-4.113-8.72-5.636   c-21.734-4.282-29.312,15.187-39.148,30.319c-9.071,13.956-22.796,17.433-37.727,24.118c-16.966,7.596-27.018,8.298-24.984,23.356   C-177.147,325.74-166.906,324.383-150.993,317.732z" fill="url(#XMLID_16_)"/>
	<linearGradient y2="284.4553" x2="-176.5071" y1="329.4602" x1="-176.5071" gradientUnits="userSpaceOnUse" id="XMLID_17_">
		<stop id="stop246" style="stop-color:#E3AD00" offset="0.2959"/>
		<stop id="stop248" style="stop-color:#FFCC00" offset="1"/>
	</linearGradient>
	<path id="path250" d="M-174.155,389.394c2.901-8.126,2.838-17.016,1.511-25.702c0.588,7.06,0.209,14.131-1.981,20.702   c-3.193,9.502-7.426,19.283-6.491,27.682C-180.401,404.915-176.915,397.064-174.155,389.394z" fill="url(#XMLID_17_)"/>
</g><path id="path257" d="M11.634,378.064c-10.706-17.229-26.016-31.146-35.259-49.37  c-10.119-23.273,14.553,34.142,25.259,51.37c13.798,22.203,24.667,39.584,13.841,66.23c0.367-1.167,0.733-2.333,1.101-3.5  c-5.148,14.336-13.926,22.11-24.802,25.59c15.458-1.5,28.154-9.079,34.802-27.59c-0.367,1.167-0.733,2.333-1.101,3.5  C36.301,417.648,25.431,400.267,11.634,378.064z" fill="url(#XMLID_18_)"/><path id="path266" d="M153.474-12.906c-3.469-12.734-35.83-20.455-46.765-25.581c-14.859-6.965-30.125-16.65-46.335-7.02  c-8.374,3.941-16.852,9.925-24.101,15.4C36.795-30.198,12.5-15.248,12.5-2.069c0,15.843,34.201,40.537,45.519,44.909  c22.334,8.628,37.419,0.038,55.355-12.146C130.159,17.379,159.228,17.008,153.474-12.906" fill="url(#XMLID_19_)"/><path id="path273" d="M153.474-12.906c-3.469-12.734-35.83-20.455-46.765-25.581  C95.25-43.858,83.548-50.839,71.358-49.338c9.695,1.128,19.102,6.516,28.352,10.852c10.935,5.125,43.296,12.846,46.765,25.581  c5.754,29.914-23.314,30.285-40.099,43.6c-11.763,7.99-22.3,14.435-34.459,15.491c15.267,1.293,27.5-6.009,41.458-15.491  C130.159,17.379,159.228,17.008,153.474-12.906z" fill="url(#XMLID_20_)"/><path id="path280" d="M12.632-0.375c1.574,11.094,12.836,20.097,20.851,26.774C43.751,34.954,55.356,42,68.275,45.694  c-7.55-4.835-14.728-10.594-19.9-18c16.534,1.416,33.912-1.823,49.542-7.078c15.367-5.166,32.875-13.681,40.458-28.922  C124.06,4.913,105.732,10.613,86.797,12.287c-15.053,1.331-32.426,1.49-46.382-5.145C34.83,4.488,29.769,0.165,28.495-6.152  c-1.713-8.496,3.114-17.195,7.754-23.917c-4.204,3.548-8.9,6.391-12.954,10.182C18.129-15.055,11.548-8.094,12.632-0.375" fill="url(#XMLID_21_)"/><path id="path287" d="M104.502-66.298c0.961,4.337,7.972,6.474,15.661,4.771c7.69-1.703,13.146-6.599,12.185-10.937  c-0.961-4.337-7.973-6.473-15.662-4.77C108.996-75.531,103.54-70.635,104.502-66.298z" fill="url(#XMLID_22_)"/><path id="path294" d="M26.93-70.436c-0.911,4.542,4.277,9.412,11.588,10.878c7.311,1.465,13.975-1.027,14.885-5.57  c0.911-4.542-4.277-9.412-11.587-10.878C34.505-77.472,27.841-74.979,26.93-70.436z" fill="url(#XMLID_23_)"/><path id="path301" d="M70.7,110.178c0,0-7.716,30.573-22.738,28.213c-15.022-2.359-31.11-11.71-12.135-14.387  C54.803,121.326,56.887,130.308,70.7,110.178z" fill="url(#XMLID_24_)"/><path id="path312" d="M17.707,41.635c9.704,8.695,19.264,17.546,29.249,25.95c9.353,7.872,16.966,26.103,28.653,30.686  c8.401,3.295,17.611-5.909,24.39-9.684C137.196,67.873,209.532,50,209.532-3.306c1.985,2.21,3.822,4.532,5.5,6.947  c-2.675-6.125-6.295-11.829-10.657-16.947c0,53.307-68.633,71.18-103.926,91.894c-6.432,3.775-10.962,18.919-18.933,15.624  c-11.089-4.583-22.52-28.754-31.394-36.626c-9.473-8.404-18.544-17.254-27.751-25.95c-6.672-6.302-12.549-14.724-20.157-4.634  c-2.836,3.762-4.183,6.47-4.496,8.562C5.137,27.808,11.047,35.667,17.707,41.635z" fill="url(#XMLID_25_)"/><path id="_75765968" d="M 63.774,180.993 L 63.274,177.993 C 54.075,183.493 43.974,186.793 33.075,187.693 L 34.375,176.693 L 23.375,182.693 L 29.675,183.893 L 24.375,184.693 L 25.675,187.392 C 24.575,187.892 23.575,188.292 22.475,188.592 C 18.775,189.792 15.175,189.292 11.875,187.092 L 12.375,185.992 L 7.675,183.992 L 6.375,184.692 L 5.775,187.992 L 2.075,186.391 L 5.375,184.692 C 5.175,184.692 4.875,184.492 4.675,184.191 C 4.475,183.792 4.375,183.292 4.375,182.692 L -0.625,181.692 C -0.625,183.391 -1.425,184.792 -3.225,185.992 C -4.925,187.092 -7.125,187.691 -9.625,187.691 L -13.325,190.792 L -15.625,187.691 L -11.625,187.691 C -12.726,186.591 -14.125,185.792 -15.625,185.492 C -16.025,185.392 -16.325,185.292 -16.625,185.292 C -16.925,185.192 -17.226,185.192 -17.525,185.192 C -18.725,185.392 -19.825,185.591 -20.924,185.692 L -21.624,180.692 C -22.124,181.192 -22.725,181.692 -23.324,182.091 C -24.524,182.991 -25.924,183.491 -27.324,183.692 C -27.724,183.792 -28.124,183.792 -28.424,183.892 C -30.324,183.591 -32.324,183.291 -34.124,182.992 L -29.024,186.192 L -40.824,186.292 L -43.124,182.092 L -46.624,185.693 L -51.424,175.293 C -52.924,178.793 -53.624,180.793 -53.525,181.493 C -52.125,186.593 -49.525,190.993 -45.625,194.693 L -45.625,195.493 C -44.726,195.993 -44.325,196.293 -44.525,196.493 L -44.525,196.593 L -43.625,196.493 L -39.625,195.693 C -32.425,197.092 -25.225,197.893 -17.726,198.092 C -5.625,198.492 6.474,197.292 18.375,194.693 C 18.774,195.193 19.275,195.592 19.675,195.993 C 20.075,196.493 20.575,196.793 21.075,197.093 C 21.875,197.793 22.875,198.394 23.875,198.793 C 24.875,199.393 25.875,199.793 26.975,200.093 C 27.576,200.293 28.076,200.493 28.675,200.593 C 29.175,200.593 29.776,200.694 30.375,200.694 L 35.175,195.494 C 35.775,195.594 36.475,195.694 37.175,195.794 C 37.675,195.794 38.276,195.794 38.875,195.794 C 40.575,195.794 42.175,195.494 43.675,194.994 C 44.675,194.594 45.675,194.094 46.575,193.494 C 47.575,192.994 48.474,192.394 49.375,191.694 L 63.774,180.993 L 63.774,180.993 z M 31.075,189.694 L 31.075,189.694 L 32.274,192.093 L 27.875,197.593 L 25.375,194.694 L 31.075,189.694 z M 13.875,190.993 L 13.875,190.993 C 14.375,191.293 14.875,191.493 15.375,191.693 C 10.075,195.293 5.075,194.693 0.475,190.193 C 5.075,188.993 9.474,189.194 13.875,190.993 L 13.875,190.993 z" style="fill:url(#linearGradient4277);fill-opacity:1.0"/><path id="path337" d="M88.925,115.119c0,0,4.5,55.5,21,42.5S98.425,147.619,88.925,115.119z" fill="url(#XMLID_26_)"/><path id="path344" d="M94.722,115.752c0,0,30.573,7.715,28.213,22.738c-2.359,15.022-11.71,31.11-14.387,12.135  C105.87,131.649,114.852,129.565,94.722,115.752z" fill="url(#XMLID_27_)"/><ellipse id="ellipse351" ry="9.204" rx="8.296" cy="103.415" cx="73.221" fill="url(#XMLID_28_)"/><ellipse style="fill-opacity:1.0" id="ellipse358" ry="8.296" rx="9.204" cy="99.415" cx="77.221" fill="url(#XMLID_29_)"/><ellipse id="ellipse365" ry="8.296" rx="9.204" cy="108.415" cx="80.221" fill="url(#XMLID_30_)"/><path opacity="0.5" fill="url(#XMLID_31_)" id="path372" d="M256.739-130.819c0.201-0.077,0.382-0.154,0.576-0.231  c-26.96-10.847-77.583-32.155-121.39-35.33c-83.461-6.049-182.203,20.209-184,45c-0.338,4.669,42.943,11.189,47.09,15.746  c0.317,0.078,0.645,0.15,0.96,0.229c7.23-48.534,94.329-39.188,132.901-34.9c22.212,2.468,42.479,8.109,61.5,20.1  C214.831-121.884,237.408-123.385,256.739-130.819z"/><path sodipodi:nodetypes="cccccccccccccccccccccccccccccccccccccccccccccccccccccccccccccccccccccccccccccccccccccccccccccccc" id="path4682" d="M 33.241324,157.26453 L 6.4636445,155.20006 L -29.536354,160.20006 C -41.236354,163.70007 -48.436354,168.50007 -51.336354,174.80007 L -46.536354,185.20007 L -40.736354,185.79907 L -21.936356,193.19908 L -33.036354,189.99908 C -31.236354,190.29908 -22.036356,180.69907 -21.536356,180.19907 L -22.780896,186.25974 C -21.680896,186.15874 -18.637356,184.89907 -17.437356,184.69907 C -17.137356,184.69907 -16.836356,184.69907 -16.537356,184.79907 C -16.237356,184.79907 -17.705116,188.25884 -17.305116,188.35784 C -15.805116,188.65784 -16.173886,190.5185 -15.072886,191.6185 L -6.8856955,193.20949 C -4.3856955,193.20949 -3.7766855,187.83552 -2.0776855,186.73652 C -0.27668546,185.53651 -0.53735546,182.89907 -0.53735546,181.19907 L -2.5373555,179.19907 L 1.6626445,178.09807 L 0.5616445,175.29807 L 7.6626445,177.49807 L 4.4626445,182.19807 C 4.4626445,182.79807 4.5626445,183.29807 4.7626445,183.69807 L 0.5716545,186.07486 L 5.1545445,188.55874 L 11.962644,186.59808 C 15.262644,188.79808 19.038424,191.4194 22.739424,190.2194 C 23.840424,189.9194 24.663644,187.39908 25.762644,186.89908 L 37.405294,191.44172 L 49.462644,191.19908 C 35.962654,210.99907 17.562644,218.99907 -5.5373555,215.19907 C -4.6383555,215.89907 13.965454,227.11328 28.265454,224.91228 L 37.062644,222.59807 C 36.163654,228.19807 29.562644,231.99707 17.262644,233.79707 C 30.962644,241.99707 40.062644,244.39808 44.362644,240.89807 C 57.963644,264.09808 60.463644,283.79708 51.663644,300.09808 C 42.862644,316.39808 37.263644,325.89808 34.763654,328.59708 C 32.163654,331.19808 27.513904,331.44353 30.513904,329.84453 C 30.613904,330.04453 35.663654,330.59708 35.763654,330.79808 C 36.463644,330.59808 38.363644,329.69808 41.263644,327.89908 C 44.263644,326.19908 48.163644,322.09908 53.163644,315.79808 C 58.163644,309.39908 61.363644,301.59808 62.862644,292.19808 C 64.262644,282.89808 64.162644,275.59708 62.562644,270.49808 L 49.462644,234.19807 C 46.861644,227.79807 48.394884,217.23971 50.462644,212.19807 C 52.362644,210.19807 54.062644,208.19807 55.662644,206.09707 C 59.361644,201.59708 62.561644,196.99708 65.162644,192.39808 C 65.862644,191.29708 66.462644,190.29708 67.061644,189.29708 C 68.461644,186.99708 70.461644,184.29707 72.761644,181.39807 C 74.061644,179.69807 74.161644,177.69807 73.161644,175.29707 C 72.860644,173.99707 70.461644,171.79707 65.961644,168.79707 C 63.360644,167.49707 52.940324,163.16153 50.239324,162.16153 L 33.241324,157.26453 z M -13.035356,175.60107 L -13.035356,175.60107 L -16.535356,171.20207 L -9.636356,171.20207 L -13.035356,175.60107 z M -12.735356,181.40207 L -12.735356,181.40207 L -19.535356,175.20207 L -13.136356,177.40207 L -12.735356,181.40207 L -12.735356,181.40207 z M 9.8636445,170.30107 L 9.8636445,170.30107 L 10.863645,168.80107 L 16.964644,172.70107 L 14.863644,178.00107 L 10.464645,176.20107 C 10.264645,176.20107 9.9646445,176.10007 9.7646445,176.00107 C 9.5646445,175.70107 9.4646445,175.50107 9.4646445,175.20107 L 3.4646445,168.20107 L 9.8636445,170.30107 z M 29.464644,165.20207 L 29.464644,165.20207 C 29.864644,166.50207 29.864644,167.60107 29.564644,168.70207 C 29.464644,169.20207 29.365644,169.60107 29.064644,170.10107 C 27.964644,172.40207 26.064644,173.80107 23.464644,174.30107 L 25.864644,172.20107 L 25.464644,169.20107 L 25.464644,162.20107 L 29.364644,165.20107 L 29.464644,165.20107 L 29.464644,165.20207 z M 19.764644,180.20207 L 19.764644,180.20207 L 19.764644,182.20207 L 19.464644,183.20207 L 18.464644,185.30207 L 15.464644,184.20207 C 15.264644,184.20207 14.964644,184.10107 14.764644,184.00207 C 14.564644,183.70207 14.464644,183.50207 14.464644,183.20207 L 13.464644,180.20207 L 19.764644,180.20207 L 19.764644,180.20207 z " style="fill:url(#radialGradient4684)"/><path sodipodi:nodetypes="ccccccccccccccccscssscc" id="path2703" d="M 23.388771,164.14979 L 18.387771,158.79979 L 13.074557,158.81591 L 5.4290177,158.40057 L -14.368474,160.44041 L -29.996506,164.34624 C -41.696506,167.84624 -44.178996,169.73203 -47.078996,176.03203 L -43.028996,183.13393 L -36.711226,187.38458 L -18.600566,191.31491 C -15.133896,191.49824 -9.5313488,191.68158 -8.4505678,191.86491 L 1.8768689,191.89854 C 4.3768689,191.89854 12.235879,191.49424 13.934879,190.39524 L 25.429671,189.67457 L 37.975209,187.86036 C 49.025214,185.31036 44.61901,186.24234 48.32001,185.04234 C 56.682839,184.26675 63.51228,180.46864 60.245588,182.41324 C 59.652103,182.76653 64.966146,181.5687 70.262652,176.31301 C 67.975513,175.34094 66.545995,172.73869 64.26903,171.10727 C 61.36467,169.02633 57.635709,167.8599 54.980036,166.48221 C 52.334304,165.10967 49.058469,163.30923 45.238225,162.3849 C 42.65113,161.75893 39.814364,161.30617 36.754541,160.52903 L 23.388771,164.14979 z " style="fill:url(#linearGradient5669);fill-opacity:1"/><path sodipodi:nodetypes="ccccccccccc" id="path5673" d="M 35.25525,164.02133 L 39.409503,167.02653 L 39.58628,169.76657 L 38.91453,171.99396 L 37.46496,174.00921 L 35.666376,175.26606 L 33.399095,175.95375 L 35.64679,173.80517 L 35.166862,170.65046 L 35.113423,167.90802 L 35.25525,164.02133 z " style="fill:url(#radialGradient6652);fill-opacity:1;fill-rule:evenodd;stroke:#000000;stroke-width:0;stroke-linecap:butt;stroke-linejoin:miter;stroke-miterlimit:4;stroke-dasharray:none;stroke-opacity:1"/><path sodipodi:nodetypes="cccccccc" id="path6654" d="M 6.6105128,165.75531 L 7.5827848,164.51787 L 13.858358,168.49535 L 11.684006,173.72794 L 6.6484988,171.82684 L 5.9917935,170.61667 L 0.45827755,163.98515 L 6.6105128,165.75531 z " style="fill:url(#radialGradient6656);fill-opacity:1;fill-rule:evenodd;stroke:#000000;stroke-width:0;stroke-linecap:butt;stroke-linejoin:miter;stroke-miterlimit:4;stroke-dasharray:none;stroke-opacity:1"/><path sodipodi:nodetypes="ccccccc" id="path6658" d="M 13.646046,180.33158 L 20.186784,180.33158 L 20.186785,182.4529 L 19.073093,185.38739 L 17.8003,185.19294 L 14.741656,184.39505 L 13.646046,180.33158 z " style="fill:url(#radialGradient6660);fill-opacity:1;fill-rule:evenodd;stroke:#000000;stroke-width:0;stroke-linecap:butt;stroke-linejoin:miter;stroke-miterlimit:4;stroke-dasharray:none;stroke-opacity:1"/><path sodipodi:nodetypes="ccccccccccc" id="path6662" d="M -1.1702654,174.22022 L 6.1659686,176.42993 L 2.6304346,181.11451 L 3.0193446,182.63479 L -1.1702644,185.26877 L -2.8804594,184.40429 L -2.2309254,182.61711 L -2.4581044,179.9382 L -4.3522454,178.02092 L -0.25143239,177.04626 L -1.1702654,174.22022 z " style="fill:url(#radialGradient6664);fill-opacity:1;fill-rule:evenodd;stroke:#000000;stroke-width:0;stroke-linecap:butt;stroke-linejoin:miter;stroke-miterlimit:4;stroke-dasharray:none;stroke-opacity:1"/><path sodipodi:nodetypes="cccc" id="path6666" d="M -13.671156,167.74275 L -6.5117019,167.65436 L -9.5169059,172.33894 L -13.671156,167.74275 z " style="fill:url(#radialGradient6668);fill-opacity:1;fill-rule:evenodd;stroke:#000000;stroke-width:0;stroke-linecap:butt;stroke-linejoin:miter;stroke-miterlimit:4;stroke-dasharray:none;stroke-opacity:1"/><path sodipodi:nodetypes="ccccc" id="path6670" d="M -19.307646,173.63183 L -12.855294,175.75315 L -12.501741,180.26096 L -16.443856,176.56632 L -19.307646,173.63183 z " style="fill:url(#radialGradient6672);fill-opacity:1;fill-rule:evenodd;stroke:#000000;stroke-width:0;stroke-linecap:butt;stroke-linejoin:miter;stroke-miterlimit:4;stroke-dasharray:none;stroke-opacity:1"/><path sodipodi:nodetypes="ccccscccccccccccccc" id="path3695" d="M 39.658388,57.046307 C 38.658388,63.946308 37.458388,66.446308 34.808388,77.196308 L 29.808388,97.696308 C 30.508388,98.696308 21.883388,147.49631 21.183388,146.19631 C 19.933388,153.74631 19.341138,153.40568 18.383388,156.24631 C 17.679158,158.335 17.608388,158.82131 15.433388,161.44631 C 14.183388,164.69631 18.207388,167.34531 18.207388,167.84531 L 27.680388,169.36631 L 33.580388,165.24131 L 39.805388,115.44132 L 50.805388,65.441308 L 52.805388,56.441307 C 52.405388,56.141307 52.005388,55.741307 51.605388,55.441307 C 46.505388,55.090307 45.805388,55.041307 40.555388,54.441307 C 40.459388,55.346307 40.359388,55.996307 40.158388,56.796307 L 39.658388,57.046307 z M 28.709388,172.44631 L 28.809388,172.44631 L 28.709388,172.44631 z " style="fill:url(#radialGradient3697);fill-opacity:1"/><path sodipodi:nodetypes="cccccccccccccc" id="path6674" d="M -26.674206,183.40005 L -20.928956,177.83158 L -21.989626,183.93038 L -16.827746,182.35706 L -15.537276,182.51616 L -16.893916,185.80594 L -15.625666,187.02397 L -14.371289,189.2566 L -17.128336,189.19281 L -20.360656,189.11803 L -24.480056,188.52985 L -28.265196,187.81947 L -31.058676,187.02158 L -26.674206,183.40005 z " style="fill:url(#radialGradient6676);fill-opacity:1;fill-rule:evenodd;stroke:#000000;stroke-width:0;stroke-linecap:butt;stroke-linejoin:miter;stroke-miterlimit:4;stroke-dasharray:none;stroke-opacity:1"/><path id="_75766472" d="M 35.925,104.542 C 35.925,104.242 35.925,103.942 35.925,103.742 C 35.725,100.142 34.825,96.842 33.025,93.842 C 32.525,92.842 31.826,91.943 31.126,90.943 L 21.126,147.943 C 21.426,147.943 21.626,148.043 21.826,148.243 C 22.026,148.442 22.126,148.743 22.126,148.942 C 22.826,150.243 23.126,151.642 23.326,153.142 C 23.525,155.642 22.926,157.842 21.725,159.943 C 21.526,160.243 21.326,160.642 21.125,160.943 L 24.024,165.842 L 33.125,116.943 C 35.025,109.842 35.925,105.943 35.925,105.342 C 35.925,105.042 35.925,104.742 35.925,104.542 L 35.925,104.542 z " style="fill:#e8e8e8;fill-opacity:0.75949366"/></g></svg>